# xmcd
#
# Track frame offsets:
#	150
#	16824
#	34572
#	51625
#	67414
#	87948
#	99182
#	119304
#	135139
#	155083
#	166435
#	184888
#	196895
#
# Disc length: 2685 seconds
#
# Revision: 0
# Processed by: cddbd v1.5.2PL0 Copyright (c) Steve Scherf et al.
# Submitted via: EasyCDDAExtractor 10.0.2.1
#
DISCID=ac0a7b0d
DTITLE=Various Artist - Capitol Music Cafe
DYEAR=2003
DGENRE=Gospel
TTITLE0=Carroll Roberson - Here I Am
TTITLE1=Double Portion - There's No Problem Too Big
TTITLE2=Common Destiny - You Saved Me
TTITLE3=Comptons - Outcast
TTITLE4=Cricket Lee - Mercy Came Running
TTITLE5=Reconcile - Ask God For More
TTITLE6=Angel Christ - Favorite Song
TTITLE7=Dixie Melody Boys - Tell Me One More Time
TTITLE8=Sonny Clardy - He Cries
TTITLE9=Signature Sound Quartet - Old Time Christian Way
TTITLE10=Dee And Danny Kramer - Just You And I
TTITLE11=Cynthia Moran - When We All Get To Heaven
TTITLE12=Prime Example - Out On A Limb
EXTD=
EXTT0=
EXTT1=
EXTT2=
EXTT3=
EXTT4=
EXTT5=
EXTT6=
EXTT7=
EXTT8=
EXTT9=
EXTT10=
EXTT11=
EXTT12=
PLAYORDER=
